<svg width="124" height="29" viewBox="0 0 124 29" fill="none" xmlns="http://www.w3.org/2000/svg">
<path fill-rule="evenodd" clip-rule="evenodd" d="M44.9671 1.52823C47.7915 3.11924 50.4007 4.71025 51.6919 5.46787C54.2473 7.00837 56.5338 8.87718 58.9547 10.746H60.9991C55.8075 7.13464 49.7014 2.79094 44.9671 1.52823ZM68.5578 17.0848C69.9028 17.8424 71.2208 18.5748 72.5658 19.2314H74.5025C72.7003 18.2465 70.8173 17.1353 68.8537 15.9231C68.7192 16.2009 68.6385 16.5039 68.6385 16.8322L68.5578 17.0848ZM8.6261 8.32159C9.00269 6.83159 9.80967 5.46787 11.0739 4.63449C18.0409 0.0887462 37.9733 0.7201 50.5083 10.8975H53.3059C50.2124 8.7004 46.6079 6.45278 42.7613 4.71025C36.6283 1.9323 29.9304 0.518066 25.2499 0.518066C19.8162 0.518066 11.316 0.568574 8.81439 7.03363C8.6799 7.33668 8.6261 7.81651 8.6261 8.32159ZM61.3757 19.0546H64.3346C63.689 18.6505 63.0165 18.2465 62.3709 17.8171L61.3757 19.0546ZM65.5182 22.3629C71.5974 25.7469 78.4029 28.2218 85.1547 28.8532C91.9064 29.4845 98.9271 28.0956 104.818 24.4337C105.571 23.9791 106.19 23.4993 106.755 23.0195H106.459V22.8427C102.962 26.0752 94.8115 27.4642 84.1325 25.8479C80.9315 25.3681 77.7842 24.661 74.7177 23.7013C78.8602 25.3934 83.9442 26.9844 89.5662 27.4137C91.7181 27.5652 93.0093 27.54 92.8748 27.6157C92.6058 27.8178 83.1103 28.0451 78.9947 26.8076C75.5516 25.7722 71.974 24.2569 68.9613 22.6912C67.966 22.4134 67.1321 22.0346 66.3251 21.4285L65.5182 22.3629ZM107.642 22.1356C110.44 19.0293 109.687 15.62 107.374 12.6148V15.4432C108.692 17.8676 108.611 20.0142 107.374 21.782V22.1356H107.642ZM105.894 10.8975C102.424 7.41244 97.2325 4.71025 93.9776 4.02839C93.5742 3.95263 93.3321 3.92737 93.3859 3.97788C93.6011 4.10415 94.4887 4.4072 95.3226 4.81127C99.0347 6.57905 101.725 8.0943 104.549 10.9228H105.894V10.8975ZM105.437 11.7814C105.598 12.1097 105.652 12.438 105.76 12.8673V11.7814H105.437Z" fill="#A0CAE2"/>
<path fill-rule="evenodd" clip-rule="evenodd" d="M40.355 18.6684C40.355 18.4901 40.3816 18.3628 40.4348 18.2099C40.4615 18.1335 40.4881 18.0826 40.5413 18.0062C40.5413 17.9807 40.568 17.9807 40.568 17.9553C40.568 17.9298 40.5946 17.9298 40.5946 17.9043C40.5946 17.8789 40.6212 17.8789 40.6212 17.8534C40.6745 17.8025 40.6745 17.777 40.7277 17.7515C40.7277 17.7515 40.7277 17.7515 40.7543 17.726C40.8076 17.6751 40.9141 17.6242 40.9673 17.5987L41.0472 17.5478C41.1537 17.4968 41.3134 17.4459 41.4199 17.4459C41.6329 17.4204 41.8991 17.4459 42.1121 17.5478C42.1388 17.5732 42.192 17.5732 42.2186 17.5987C42.2719 17.6242 42.3518 17.6751 42.405 17.726C42.405 17.726 42.405 17.726 42.4316 17.7515L42.4849 17.8025C42.5115 17.8279 42.5381 17.8534 42.5647 17.8789C42.5647 17.9043 42.5914 17.9043 42.5914 17.9298C42.7777 18.159 42.8576 18.3882 42.8576 18.6684C42.8576 18.8467 42.8044 19.0249 42.7511 19.1523C42.7245 19.2032 42.6712 19.3051 42.6446 19.3306C42.618 19.3815 42.5914 19.407 42.5381 19.4579L42.5115 19.5088C42.4849 19.5343 42.4316 19.5852 42.3784 19.6107C42.3251 19.6616 42.2719 19.6871 42.192 19.738C42.1654 19.738 42.1654 19.7635 42.1388 19.7635L42.0855 19.789C42.0589 19.789 42.0589 19.789 42.0323 19.8145C41.8991 19.8654 41.7394 19.8909 41.6063 19.8909C41.3667 19.8909 41.1803 19.8145 40.9939 19.738L40.8342 19.6362C40.8342 19.6362 40.8342 19.6362 40.8076 19.6107C40.7543 19.5598 40.7011 19.5088 40.6478 19.4579C40.568 19.3815 40.5147 19.2796 40.4615 19.1777C40.4082 19.0249 40.355 18.8467 40.355 18.6684ZM42.2186 21.7501H42.1654H41.0206C41.0206 21.7246 41.0206 21.7246 41.0206 21.6991L40.9141 21.0879C40.9141 21.0624 40.9141 21.0624 40.9141 21.0369C40.9141 21.0369 40.8874 21.0369 40.8608 21.0369L40.7543 21.0115C40.7277 21.0115 40.7011 20.986 40.6745 20.986C40.6478 20.986 40.6212 20.9605 40.5946 20.9605C40.568 20.9605 40.5413 20.9351 40.5147 20.9351L40.3017 20.8332C40.2751 20.8587 40.2485 20.8587 40.2219 20.8841L39.9556 21.0624L39.929 21.0879C39.9024 21.1133 39.7426 21.2152 39.6894 21.2407L38.8374 20.4257L38.864 20.4002L38.8907 20.3748C38.9439 20.2984 38.9972 20.2474 39.0238 20.171L39.2368 19.8909C39.2368 19.8909 39.2368 19.8909 39.2368 19.8654C39.2634 19.8399 39.2634 19.8399 39.2368 19.8145C39.2368 19.789 39.2368 19.789 39.2102 19.789L39.1303 19.6107C39.1037 19.5598 39.0238 19.3815 39.0238 19.3306L38.2783 19.2032V18.0571C38.3049 18.0571 38.6777 18.0062 38.7309 17.9807C38.7842 17.9807 38.9705 17.9553 38.9972 17.9298C38.9972 17.9298 38.9972 17.9043 38.9972 17.8789C39.0504 17.726 39.1037 17.5732 39.1835 17.4459C39.1835 17.4204 39.2102 17.395 39.2102 17.395C39.1835 17.3695 39.1835 17.344 39.1569 17.3186C39.1569 17.2931 39.1303 17.2931 39.1303 17.2931L39.1037 17.2676L38.8907 16.9875C38.8907 16.962 38.864 16.962 38.864 16.962C38.8374 16.9365 38.7842 16.8601 38.7842 16.8601C38.7842 16.8347 38.8108 16.8092 38.8374 16.8092L38.9439 16.7073C38.9705 16.6818 38.9705 16.6818 38.9972 16.6564L39.1569 16.5036L39.1835 16.4781C39.2368 16.4272 39.3166 16.3508 39.3699 16.2998C39.4231 16.2743 39.6095 16.0706 39.6361 16.0451C39.6628 16.0451 39.6628 16.0706 39.6628 16.0706L39.9556 16.2489C39.9556 16.2489 39.9556 16.2489 39.9822 16.2743L40.2485 16.4526C40.2751 16.4526 40.355 16.4017 40.3816 16.4017C40.4082 16.4017 40.4348 16.3762 40.4348 16.3762C40.4615 16.3762 40.4881 16.3508 40.5147 16.3508C40.568 16.3253 40.7543 16.2489 40.8076 16.2489L40.9407 15.5358H42.1388C42.1388 15.5612 42.1388 15.5612 42.1388 15.5867C42.1654 15.6631 42.2453 16.1979 42.2453 16.2234C42.2719 16.2234 42.2719 16.2234 42.2985 16.2234C42.3251 16.2234 42.3251 16.2234 42.3251 16.2234C42.4316 16.2489 42.5115 16.2998 42.618 16.3253C42.6446 16.3508 42.8044 16.4017 42.8044 16.4272C42.831 16.4017 42.8576 16.4017 42.8842 16.3762L43.044 16.2743C43.0706 16.2743 43.0706 16.2489 43.0706 16.2489C43.1505 16.1979 43.257 16.1215 43.3368 16.0706C43.4167 16.0197 43.4167 16.0197 43.4433 16.0451C43.4699 16.0706 43.4966 16.0961 43.5232 16.1215L43.6829 16.2743C43.7362 16.3253 43.7894 16.3762 43.8161 16.4017C43.8693 16.4781 43.9492 16.529 44.0024 16.6054L44.029 16.6309C44.0557 16.6564 44.2154 16.8092 44.242 16.8347C44.242 16.8601 44.1355 16.962 44.1355 16.9875C44.0823 17.0639 43.9758 17.1912 43.9226 17.2676C43.8959 17.2931 43.8959 17.3186 43.8693 17.344C43.8427 17.3695 43.8427 17.395 43.8161 17.4204C43.8161 17.4459 43.8427 17.4714 43.8427 17.4714L43.8959 17.5732C43.8959 17.5732 43.8959 17.5987 43.9226 17.5987L43.9758 17.726C43.9758 17.7515 44.0024 17.777 44.0024 17.8025C44.0024 17.8279 44.0557 17.9298 44.0557 17.9553C44.0823 17.9553 44.1089 17.9553 44.1355 17.9807L44.5881 18.0571C44.6148 18.0571 44.6414 18.0571 44.668 18.0826C44.6946 18.0826 44.7213 18.1081 44.7479 18.1081V19.2541C44.7213 19.2541 44.6148 19.2796 44.5615 19.2796C44.5083 19.2796 44.0557 19.356 44.029 19.356C44.029 19.3815 44.029 19.407 44.0024 19.4324C44.0024 19.4579 43.9758 19.4834 43.9758 19.5088C43.9492 19.6107 43.8959 19.6871 43.8693 19.7635C43.8693 19.789 43.8427 19.8145 43.8427 19.8145C43.8427 19.8145 43.8427 19.8399 43.8161 19.8399C43.8161 19.8399 43.8161 19.8654 43.7894 19.8654L43.9226 20.0437C43.9758 20.1201 44.0557 20.2219 44.1089 20.2984L44.2154 20.4512L43.3635 21.2662C43.3368 21.2407 43.3102 21.2407 43.2836 21.2152C43.1771 21.1388 43.0706 21.0624 42.9375 20.986L42.7245 20.8587C42.6979 20.8587 42.6979 20.8587 42.6712 20.8587L42.5914 20.8841C42.5914 20.8841 42.5647 20.8841 42.5647 20.9096C42.4582 20.9605 42.3518 21.0115 42.2453 21.0369C42.2186 21.0369 42.192 21.0624 42.1654 21.0624C42.1654 21.0879 42.1654 21.1388 42.1388 21.1643C42.1388 21.1897 42.1388 21.2407 42.1121 21.2662L42.0323 21.6991C42.2453 21.6991 42.2453 21.7501 42.2186 21.7501C42.2453 21.7501 42.2186 21.7501 42.2186 21.7501Z" fill="#95A5AF"/>
<path d="M124 19.8351L121.601 22.7859H115.59C113.622 22.7859 111.977 22.2984 110.657 21.3233V12.753C111.977 11.8549 113.622 11.3931 115.59 11.3931H124L121.601 14.3439H115.59C114.565 14.3439 113.73 14.6005 113.056 15.1394C112.382 15.6526 112.058 16.3197 112.058 17.1408C112.058 17.9363 112.382 18.6034 113.056 19.0909C113.73 19.6041 114.565 19.8607 115.59 19.8607H124V19.8351ZM109.713 20.5022C108.797 19.5272 108.365 18.3468 108.365 16.9869C108.365 15.6269 108.823 14.4722 109.713 13.5228V20.5022Z" fill="#0055A4"/>
<path d="M110.522 22.7859H106.748V11.3931H110.522V22.7859Z" fill="#0055A4"/>
<path d="M105.643 21.2567C105.643 22.2762 105.16 22.7859 104.169 22.7859C103.472 22.7859 102.802 22.531 102.159 22.0213L95.1924 16.4651V22.684H92.1913V11.597C92.4324 11.444 92.754 11.3931 93.1291 11.3931C93.799 11.3931 94.4153 11.6225 95.0048 12.0812L101.972 17.6375V11.3931H105.67V21.2567H105.643Z" fill="#0055A4"/>
<path d="M92.1913 22.7859H88.4982V18.5264H81.3817V22.7859H78.1469L80.3304 20.1173L80.8965 19.3989H77.6617V14.7801H77.7965L80.5191 11.3931H81.3548V15.5756H88.4713V11.3931H92.1643V22.7859H92.1913ZM77.6348 21.9648V20.2969H78.9826L77.6348 21.9648ZM77.6348 13.4972V11.8036H79.0095L77.6348 13.4972Z" fill="#0055A4"/>
<path d="M79.7913 19.8351L77.3921 22.7859H71.3808C69.3861 22.7859 67.7148 22.2727 66.3669 21.2463L67.2026 20.22L68.0113 19.2192H64.6417C64.3182 18.5521 64.1565 17.7823 64.1565 16.9869C64.1565 16.294 64.2643 15.6526 64.5069 15.0624L64.5878 14.9597H64.6148L66.3669 12.8043C67.6878 11.8549 69.3591 11.3931 71.3808 11.3931H79.7913L77.3921 14.3439H71.3808C70.3565 14.3439 69.5208 14.6005 68.8469 15.1394C68.173 15.6526 67.8495 16.3197 67.8495 17.1408C67.8495 17.9363 68.173 18.6034 68.8469 19.0909C69.5208 19.6041 70.3565 19.8607 71.3808 19.8607H79.7913V19.8351Z" fill="#0055A4"/>
<path d="M67.3913 19.4616L64.9797 22.243L53.9131 22.2681V14.6255H55.0117L57.5573 11.6436L57.7717 11.3931H66.8554L64.4706 14.2246H57.6109V15.3772H63.4792L61.0943 18.1586H57.6109V19.4616H67.3913ZM53.9131 13.7986V11.819H56.2443L54.5562 13.7986H53.9131Z" fill="#0055A4"/>
<path d="M57.1478 11.3931L54.762 14.3439H51.1965V22.7859H47.4971V14.3439H42.5913L44.9772 11.3931H57.1478Z" fill="#0055A4"/>
<path d="M42.0521 11.3931L35.0444 19.014V22.7859H31.3812V18.9883L26.4174 13.7794L29.2576 11.8293L33.2659 16.0118L37.3803 11.3931H42.0521Z" fill="#0055A4"/>
<path d="M29.113 22.7859H23.4622L17.7307 18.9626V22.7859H14.0173V22.5806C14.2864 22.4523 14.5286 22.324 14.7439 22.1444C15.9009 21.349 16.466 20.3226 16.466 19.0396C16.466 18.3981 16.3315 17.808 16.0355 17.2948C15.7395 16.7816 15.3358 16.3197 14.7708 15.9092C14.5286 15.7552 14.2864 15.6012 14.0173 15.4729V14.0873L15.9817 11.6497L16.1969 11.3931H17.7307V15.2933L23.4622 11.3931H29.0323L20.5023 17.1665L29.113 22.7859ZM14.0173 21.5543V16.4737C14.0981 16.525 14.1519 16.5506 14.2326 16.602C14.69 16.9099 15.0129 17.2691 15.2282 17.6797C15.4435 18.0902 15.5511 18.5264 15.5511 19.0396C15.5511 20.0147 15.0937 20.8101 14.2057 21.426C14.1519 21.4773 14.0712 21.5286 14.0173 21.5543ZM14.0173 12.6504V11.8036H14.69L14.0173 12.6504Z" fill="#0055A4"/>
<path d="M15.7953 11.3931L13.3881 14.3439H4.89545C4.43566 14.3439 4.21928 14.4979 4.21928 14.8058C4.21928 15.1137 4.43566 15.2677 4.89545 15.2677H11.008C12.4685 15.2677 13.6856 15.6012 14.6593 16.2684C15.66 16.9869 16.1739 17.9106 16.1739 19.0396C16.1739 20.1686 15.66 21.0924 14.6323 21.7852C13.6856 22.4523 12.4685 22.7859 11.008 22.7859H0L2.40715 19.8351H11.008C11.3867 19.8351 11.7383 19.7837 12.0628 19.6555C12.4685 19.5015 12.6578 19.2706 12.6578 19.014C12.6578 18.7317 12.4685 18.5008 12.0628 18.3725C11.7653 18.2698 11.4137 18.2185 11.008 18.2185H4.89545C3.54311 18.2185 2.40715 17.9106 1.48757 17.3204C0.513887 16.6789 0.0270467 15.8578 0.0270467 14.8058C0.0270467 13.7537 0.513887 12.907 1.48757 12.2655C2.40715 11.6753 3.51607 11.3931 4.89545 11.3931H15.7953Z" fill="#0055A4"/>
<path fill-rule="evenodd" clip-rule="evenodd" d="M85.7246 1.02469C85.7523 1.12419 85.78 1.17393 85.863 1.24856C85.9738 1.37292 86.0845 1.47242 86.1953 1.57191C86.2506 1.59678 86.2783 1.64653 86.3337 1.6714C86.5552 1.79577 87.9117 2.31812 87.9394 2.49223C87.9948 2.74097 87.9117 2.9897 87.9394 3.0892C87.884 3.0892 87.8564 3.06432 87.801 3.03945C87.7733 3.03945 87.7733 3.01458 87.7733 3.01458C87.6626 2.96483 87.3857 2.76584 87.275 3.01458C87.1919 3.16382 87.2473 3.26331 87.3857 3.3628L87.4688 3.41255C87.5518 3.4623 87.6349 3.48717 87.7456 3.51205C87.7733 3.51205 87.7733 3.51205 87.801 3.53692C87.9671 3.58667 87.9394 3.58667 87.9394 3.78565L87.9117 4.65623C87.9117 4.70598 87.9117 4.73085 87.9117 4.7806C87.9117 4.80547 87.884 5.12882 87.9117 5.12882C87.9394 5.1537 88.2163 5.17857 88.2439 5.17857C88.4377 4.92984 88.9638 4.08414 89.0191 3.86028C89.0191 3.81053 88.9914 3.66129 89.0745 3.63641C89.1299 3.61154 89.1576 3.63641 89.1852 3.63641C89.2129 3.63641 89.2683 3.61154 89.3237 3.61154C89.3237 3.58667 89.296 3.53692 89.2683 3.53692C89.296 3.51205 89.3237 3.48717 89.3514 3.4623C89.5451 3.28818 89.5728 3.21356 89.6559 3.23844L89.9327 3.28818C90.4311 3.38768 90.9017 3.61154 91.4554 3.73591C91.5938 3.76078 91.5662 3.8354 91.5662 4.05926C91.5662 4.13388 91.5662 4.50699 91.5662 4.55673C91.5938 4.63135 91.7046 4.65623 91.7876 4.63135C91.8707 4.60648 92.2029 4.08414 92.2583 4.03439C92.2583 4.00952 92.2583 4.00952 92.286 4.00952C92.286 4.00952 92.286 3.98464 92.3136 3.98464C92.369 3.88515 92.4244 3.88515 92.5074 3.88515C92.5905 3.88515 92.7012 3.86028 92.7566 3.81053C92.7566 3.78565 92.7289 3.76078 92.7289 3.76078C92.7012 3.71103 92.6459 3.63641 92.6182 3.61154C92.6459 3.58667 92.6736 3.58667 92.7012 3.56179C92.9227 3.41255 93.1442 3.26331 93.3657 3.0892C93.5041 2.9897 93.6702 2.81559 93.8086 2.76584C93.6149 2.59173 93.4764 2.69122 93.2826 2.76584C93.1442 2.81559 92.9781 2.86533 92.812 2.93995L92.5905 3.01458L92.6736 2.69122C92.6736 2.64147 92.7012 2.59173 92.7012 2.54198C92.6736 2.46736 92.4798 2.39274 92.3967 2.39274C92.3413 2.41761 91.9537 2.64147 91.8984 2.69122C91.843 2.71609 91.7046 2.81559 91.6492 2.84046C91.5938 2.86533 91.5662 2.86533 91.5108 2.84046C91.3447 2.79071 91.0955 2.66635 90.9017 2.59173L90.4588 2.39274L90.6525 2.19375L90.6249 2.144C90.6249 2.11913 90.6802 2.09425 90.7356 2.04451L90.5695 1.94501L93.1719 0.129247C93.1442 0.054626 92.9504 -0.0199945 92.8673 0.004879C92.7012 0.0297525 92.5905 0.129247 92.4244 0.178994L92.0368 0.353108C91.7876 0.477476 91.5385 0.57697 91.2893 0.701338C91.2339 0.726211 91.1786 0.751085 91.0955 0.775958C90.7633 0.925199 90.4588 1.04957 90.1265 1.19881C90.0712 1.22368 89.9881 1.24856 89.9327 1.27343C89.8497 1.2983 89.7666 1.34805 89.6836 1.37292C89.6282 1.3978 89.4898 1.2983 89.4344 1.27343C89.3237 1.22368 89.1852 1.14906 89.0468 1.14906C88.9914 1.14906 88.9638 1.17393 88.9084 1.19881C88.8253 1.2983 88.7976 1.44754 88.8807 1.54704C88.9084 1.57191 88.9361 1.59678 88.9638 1.59678C88.9361 1.59678 88.8807 1.62166 88.8253 1.64653C88.7423 1.67141 88.4931 1.54704 88.4101 1.49729C88.3824 1.49729 88.3547 1.47242 88.327 1.47242C87.884 1.27343 87.3303 0.99982 86.8597 0.875452C86.749 0.850579 86.6382 0.800832 86.4998 0.775958C86.4167 0.775958 85.6692 0.775958 85.7246 1.02469Z" fill="#3DC0F0"/>
<path fill-rule="evenodd" clip-rule="evenodd" d="M85.7244 1.08849C85.7505 1.16775 85.7766 1.2206 85.8028 1.29986C86.0116 1.2206 86.3771 1.2206 86.4554 1.2206C86.5599 1.24702 86.6643 1.27344 86.7948 1.32628C87.2126 1.48482 87.7347 1.77546 88.1785 1.96041C88.2047 1.96041 88.2308 1.98683 88.2569 1.98683C88.3613 2.03968 88.5702 2.14537 88.6485 2.14537C88.7007 2.14537 88.7268 2.11894 88.779 2.09252C88.7529 2.0661 88.7268 2.0661 88.7007 2.03968C88.6485 1.96041 88.6485 1.85472 88.6746 1.77546C88.5702 1.77546 88.3874 1.66977 88.3091 1.61693C88.283 1.61693 88.2569 1.5905 88.2308 1.5905C87.813 1.37913 87.2909 1.08849 86.8471 0.956376C86.7426 0.929954 86.6382 0.87711 86.5077 0.850688C86.3771 0.824265 85.6722 0.824265 85.7244 1.08849ZM87.7869 3.25509C87.7608 3.25509 87.7086 3.22867 87.6825 3.20225C87.6564 3.20225 87.6564 3.17583 87.6564 3.17583C87.552 3.12298 87.2909 2.91161 87.1865 3.17583C87.1342 3.30794 87.1342 3.3872 87.2126 3.46647C87.3431 3.33436 87.552 3.49289 87.6303 3.54573C87.6564 3.54573 87.6564 3.57216 87.6564 3.57216C87.6825 3.59858 87.7347 3.625 87.7869 3.625C87.7608 3.54573 87.7869 3.41362 87.7869 3.25509ZM92.9301 3.17583C93.0345 3.07014 93.1912 2.93803 93.2695 2.88518C93.0868 2.70023 92.9562 2.80592 92.7735 2.88518C92.6429 2.93803 92.4863 2.99087 92.3296 3.07014L92.173 3.12298C92.173 3.1494 92.173 3.1494 92.173 3.17583L92.0947 3.51931L92.3035 3.44005C92.4341 3.3872 92.5907 3.30794 92.7474 3.25509C92.7996 3.22867 92.8779 3.20225 92.9301 3.17583ZM92.173 2.99087L92.2252 2.80592C92.2252 2.75307 92.2513 2.70023 92.2513 2.64739C92.2252 2.56812 92.0425 2.48885 91.9641 2.48885C91.9119 2.51528 91.5464 2.75307 91.4942 2.80592C91.442 2.83234 91.3114 2.93803 91.2592 2.96445C91.207 2.99087 91.1809 2.99087 91.1287 2.96445C90.9721 2.91161 90.7371 2.7795 90.5543 2.70023L90.2933 2.56812C90.2671 2.59454 90.241 2.62096 90.241 2.62096L90.2671 2.67381L90.0844 2.88518L90.5021 3.09656C90.6588 3.17583 90.9198 3.30794 91.0765 3.36078C91.1287 3.3872 91.1548 3.3872 91.207 3.36078C91.2592 3.33436 91.3898 3.22867 91.442 3.20225C91.4942 3.17583 91.8597 2.91161 91.9119 2.88518C91.9641 2.85876 92.1208 2.91161 92.173 2.99087ZM92.4341 0.375091L92.7212 0.137293C92.6951 0.0580268 92.5124 -0.0212393 92.4341 0.00518274C92.2774 0.0316048 92.173 0.137293 92.0164 0.190137L91.6508 0.375091C91.4159 0.507201 91.1809 0.612889 90.9459 0.744999C90.8937 0.771421 90.8415 0.797843 90.7632 0.824265C90.4499 0.982798 90.1627 1.11491 89.8494 1.27344C89.7972 1.29986 89.7189 1.32628 89.6667 1.35271C89.5884 1.37913 89.51 1.43197 89.4317 1.45839C89.3795 1.48482 89.2489 1.37913 89.1967 1.35271C89.0923 1.29986 88.9618 1.2206 88.8312 1.2206C88.779 1.2206 88.7529 1.24702 88.7007 1.27344C88.6224 1.37913 88.5963 1.53766 88.6746 1.64335C88.7007 1.61693 88.7268 1.5905 88.779 1.5905C88.9096 1.5905 89.0401 1.66977 89.1445 1.72261C89.1967 1.74904 89.3273 1.85472 89.3795 1.8283C89.4578 1.80188 89.5361 1.77546 89.6145 1.72261C89.6667 1.69619 89.745 1.66977 89.7972 1.64335C90.1105 1.51124 90.3977 1.35271 90.711 1.19417C90.7632 1.16775 90.8415 1.14133 90.8937 1.11491C91.1287 0.982798 91.3637 0.877109 91.5986 0.744999L91.9641 0.560045C92.0947 0.507201 92.2252 0.401513 92.3819 0.375091C92.408 0.375091 92.4341 0.375091 92.4341 0.375091Z" fill="#C5E7FB"/>
<path fill-rule="evenodd" clip-rule="evenodd" d="M106.98 22.7858C110.809 19.2559 109.736 15.3108 106.748 11.9108V14.636C108.837 17.6987 108.691 20.3979 106.748 22.4743V22.7858H106.98Z" fill="#009FE3"/>
<path fill-rule="evenodd" clip-rule="evenodd" d="M59.3043 11.3931C60.4557 12.3555 61.9473 13.5928 63.1249 14.4727C63.4912 14.5002 63.7791 14.4727 64.1454 14.5002L64.6949 13.8128C64.7473 13.7578 61.7903 11.668 61.5548 11.4756L59.3043 11.3931Z" fill="#009FE3"/>
</svg>
